# xmcd
#
# Track frame offsets:
#	150
#	17585
#	30100
#	46353
#	57392
#	74712
#	90456
#	105426
#	119488
#	134502
#	150778
#
# Disc length: 2167 seconds
#
# Revision: 0
# Processed by: cddbd v1.4PL0 Copyright (c) Steve Scherf et al.
# Submitted via: EasyCDDAExtractor 4.6.0.1
#
DISCID=8508750b
DTITLE=Two Tons Of Steel - King Of A One Horse Town
DYEAR=2001
DGENRE=Couuntry
TTITLE0=King Of One Horse Town
TTITLE1=Heartache
TTITLE2=Love is Here To Stay
TTITLE3=Sweet Elena
TTITLE4=Does Heaven Know
TTITLE5=You Didn't Know Me
TTITLE6=Since I Met You Baby
TTITLE7=I Wanna Be Sedated
TTITLE8=One MoreTime
TTITLE9=Sad Lovers Song
TTITLE10=Crazy Little Rockin' (Redheaded Girl)
EXTD=CRS MMACD 1011  LC 01995
EXTT0=
EXTT1=
EXTT2=
EXTT3=
EXTT4=
EXTT5=
EXTT6=
EXTT7=
EXTT8=
EXTT9=
EXTT10=
PLAYORDER=
